<svg width="22" height="22" viewBox="0 0 22 22" fill="none" xmlns="http://www.w3.org/2000/svg">
<path d="M12.8335 11.6874C12.6519 11.685 12.4784 11.6118 12.35 11.4834C12.2216 11.355 12.1484 11.1815 12.146 10.9999V7.33325C12.146 7.15092 12.2184 6.97605 12.3474 6.84712C12.4763 6.71818 12.6512 6.64575 12.8335 6.64575C13.0158 6.64575 13.1907 6.71818 13.3196 6.84712C13.4486 6.97605 13.521 7.15092 13.521 7.33325V10.9999C13.5186 11.1815 13.4454 11.355 13.317 11.4834C13.1886 11.6118 13.0151 11.685 12.8335 11.6874Z" fill="white"/>
<path d="M14.6667 9.85425H11C10.8177 9.85425 10.6428 9.78181 10.5139 9.65288C10.3849 9.52395 10.3125 9.34908 10.3125 9.16675C10.3125 8.98441 10.3849 8.80954 10.5139 8.68061C10.6428 8.55168 10.8177 8.47925 11 8.47925H14.6667C14.849 8.47925 15.0239 8.55168 15.1528 8.68061C15.2817 8.80954 15.3542 8.98441 15.3542 9.16675C15.3542 9.34908 15.2817 9.52395 15.1528 9.65288C15.0239 9.78181 14.849 9.85425 14.6667 9.85425Z" fill="white"/>
<path d="M16.8303 14.4374H6.74695C6.56461 14.4374 6.38974 14.365 6.26081 14.2361C6.13188 14.1071 6.05945 13.9323 6.05945 13.7499C6.05945 13.5676 6.13188 13.3927 6.26081 13.2638C6.38974 13.1349 6.56461 13.0624 6.74695 13.0624H16.8303C17.0941 13.0632 17.35 12.9721 17.554 12.8048C17.758 12.6376 17.8976 12.4046 17.9486 12.1458L19.2503 5.54575C19.2642 5.51559 19.2715 5.48274 19.2715 5.4495C19.2715 5.41626 19.2642 5.38342 19.2503 5.35325C19.2286 5.32813 19.2019 5.30782 19.1719 5.29361C19.1419 5.27941 19.1093 5.27162 19.0761 5.27075H5.07861C4.89628 5.27075 4.72141 5.19832 4.59248 5.06939C4.46355 4.94046 4.39111 4.76559 4.39111 4.58325C4.39111 4.40092 4.46355 4.22605 4.59248 4.09712C4.72141 3.96818 4.89628 3.89575 5.07861 3.89575H19.0486C19.2854 3.89693 19.5191 3.95024 19.733 4.05188C19.9469 4.15352 20.1358 4.30101 20.2863 4.48388C20.4368 4.66674 20.5452 4.88049 20.6038 5.10995C20.6623 5.33941 20.6697 5.57896 20.6253 5.81159L19.3053 12.4116C19.1876 12.9819 18.8774 13.4943 18.4268 13.8632C17.9762 14.232 17.4126 14.4347 16.8303 14.4374Z" fill="white"/>
<path d="M6.71016 14.4375C6.54876 14.436 6.39289 14.3785 6.26917 14.2749C6.14545 14.1712 6.06156 14.0278 6.03183 13.8692L4.04266 2.74999C4.03039 2.69824 4.00117 2.65209 3.95964 2.61886C3.91812 2.58564 3.86667 2.56726 3.8135 2.56665H1.8335C1.65116 2.56665 1.47629 2.49422 1.34736 2.36529C1.21843 2.23636 1.146 2.06149 1.146 1.87915C1.146 1.69682 1.21843 1.52195 1.34736 1.39302C1.47629 1.26409 1.65116 1.19165 1.8335 1.19165H3.8135C4.18223 1.19092 4.54022 1.31582 4.82848 1.54576C5.11674 1.7757 5.31808 2.09698 5.39933 2.45665L7.3885 13.6308C7.40431 13.7199 7.40238 13.8113 7.38282 13.8996C7.36326 13.988 7.32645 14.0716 7.2745 14.1457C7.22255 14.2198 7.15648 14.2829 7.08009 14.3314C7.0037 14.3799 6.91848 14.4128 6.82933 14.4283L6.71016 14.4375ZM9.16683 20.8542C8.75891 20.8542 8.36014 20.7332 8.02097 20.5066C7.68179 20.2799 7.41743 19.9578 7.26133 19.5809C7.10522 19.2041 7.06438 18.7894 7.14396 18.3893C7.22354 17.9892 7.41998 17.6217 7.70842 17.3332C7.99687 17.0448 8.36437 16.8484 8.76446 16.7688C9.16454 16.6892 9.57924 16.73 9.95611 16.8862C10.333 17.0423 10.6551 17.3066 10.8817 17.6458C11.1084 17.985 11.2293 18.3837 11.2293 18.7917C11.2293 19.3387 11.012 19.8633 10.6252 20.2501C10.2384 20.6369 9.71384 20.8542 9.16683 20.8542ZM9.16683 18.1042C9.03085 18.1042 8.89793 18.1445 8.78488 18.22C8.67182 18.2956 8.5837 18.4029 8.53166 18.5286C8.47963 18.6542 8.46601 18.7924 8.49254 18.9258C8.51907 19.0591 8.58455 19.1816 8.68069 19.2778C8.77684 19.3739 8.89934 19.4394 9.03271 19.4659C9.16607 19.4925 9.3043 19.4789 9.42992 19.4268C9.55555 19.3748 9.66292 19.2867 9.73846 19.1736C9.81401 19.0605 9.85433 18.9276 9.85433 18.7917C9.85196 18.6101 9.77876 18.4366 9.65034 18.3081C9.52192 18.1797 9.34843 18.1065 9.16683 18.1042ZM16.0418 20.8542C15.6339 20.8542 15.2351 20.7332 14.896 20.5066C14.5568 20.2799 14.2924 19.9578 14.1363 19.5809C13.9802 19.2041 13.9394 18.7894 14.019 18.3893C14.0985 17.9892 14.295 17.6217 14.5834 17.3332C14.8719 17.0448 15.2394 16.8484 15.6395 16.7688C16.0395 16.6892 16.4542 16.73 16.8311 16.8862C17.208 17.0423 17.5301 17.3066 17.7567 17.6458C17.9834 17.985 18.1043 18.3837 18.1043 18.7917C18.1043 19.3387 17.887 19.8633 17.5002 20.2501C17.1134 20.6369 16.5888 20.8542 16.0418 20.8542ZM16.0418 18.1042C15.9059 18.1042 15.7729 18.1445 15.6599 18.22C15.5468 18.2956 15.4587 18.4029 15.4067 18.5286C15.3546 18.6542 15.341 18.7924 15.3675 18.9258C15.3941 19.0591 15.4595 19.1816 15.5557 19.2778C15.6518 19.3739 15.7743 19.4394 15.9077 19.4659C16.0411 19.4925 16.1793 19.4789 16.3049 19.4268C16.4305 19.3748 16.5379 19.2867 16.6135 19.1736C16.689 19.0605 16.7293 18.9276 16.7293 18.7917C16.727 18.6101 16.6538 18.4366 16.5253 18.3081C16.3969 18.1797 16.2234 18.1065 16.0418 18.1042Z" fill="white"/>
<path d="M18.3335 18.1042H6.41683C5.74826 18.1042 5.10708 17.8386 4.63433 17.3658C4.16158 16.8931 3.896 16.2519 3.896 15.5833C3.896 14.9148 4.16158 14.2736 4.63433 13.8008C5.10708 13.3281 5.74826 13.0625 6.41683 13.0625H10.0835C10.2658 13.0625 10.4407 13.1349 10.5696 13.2639C10.6986 13.3928 10.771 13.5677 10.771 13.75C10.771 13.9323 10.6986 14.1072 10.5696 14.2361C10.4407 14.3651 10.2658 14.4375 10.0835 14.4375H6.41683C6.11294 14.4375 5.82149 14.5582 5.6066 14.7731C5.39172 14.988 5.271 15.2794 5.271 15.5833C5.271 15.8872 5.39172 16.1787 5.6066 16.3936C5.82149 16.6084 6.11294 16.7292 6.41683 16.7292H18.3335C18.5158 16.7292 18.6907 16.8016 18.8196 16.9305C18.9486 17.0595 19.021 17.2343 19.021 17.4167C19.021 17.599 18.9486 17.7739 18.8196 17.9028C18.6907 18.0317 18.5158 18.1042 18.3335 18.1042Z" fill="white"/>
</svg>
