<svg width="193" height="177" viewBox="0 0 193 177" fill="none" xmlns="http://www.w3.org/2000/svg">
<g clip-path="url(#clip0_1442_7423)">
<path d="M28.2627 160.704C-9.41952 138.973 -9.41952 103.747 28.2627 82.0358C65.9449 60.325 127.043 60.3083 164.733 82.0358C202.424 103.763 202.419 138.994 164.733 160.704C127.047 182.415 65.9491 182.432 28.2627 160.704Z" fill="#CBC9D0"/>
<path d="M58.4218 161.749C74.7744 161.749 88.0308 154.107 88.0308 144.679C88.0308 135.252 74.7744 127.609 58.4218 127.609C42.0692 127.609 28.8129 135.252 28.8129 144.679C28.8129 154.107 42.0692 161.749 58.4218 161.749Z" fill="#A3A3A3"/>
<path d="M126.853 136.704C147.384 125.645 159.561 108.409 154.051 98.2051C148.54 88.0017 127.429 88.695 106.898 99.7538C86.3662 110.812 74.1893 128.049 79.6999 138.252C85.2104 148.456 106.322 147.762 126.853 136.704Z" fill="#A3A3A3"/>
<path d="M147.286 112.467C151.392 107.576 157.823 104.392 165.054 102.515C172.194 100.658 173.473 96.2712 168.743 94.8476C163.383 93.2368 156.681 96.2004 152.367 100.313C144.844 107.501 143.902 113 143.902 113L147.286 112.467Z" fill="#0E8388"/>
<path opacity="0.15" d="M147.286 112.467C151.392 107.576 157.823 104.392 165.054 102.515C172.194 100.658 173.473 96.2712 168.743 94.8476C163.383 93.2368 156.681 96.2004 152.367 100.313C144.844 107.501 143.902 113 143.902 113L147.286 112.467Z" fill="black"/>
<path d="M145.173 112.18C145.141 112.179 145.11 112.172 145.081 112.159C145.057 112.147 145.035 112.13 145.016 112.11C144.998 112.089 144.984 112.065 144.975 112.039C144.966 112.013 144.963 111.986 144.965 111.959C144.966 111.931 144.973 111.905 144.985 111.88C151.079 99.3929 164.575 96.3211 167.842 96.5542C167.87 96.5563 167.896 96.5638 167.921 96.5762C167.945 96.5887 167.967 96.6058 167.985 96.6267C168.003 96.6476 168.016 96.6718 168.025 96.698C168.033 96.7241 168.036 96.7516 168.034 96.779C168.028 96.8334 168.001 96.8834 167.959 96.919C167.918 96.9545 167.864 96.9729 167.809 96.9704C164.608 96.7248 151.358 99.7675 145.361 112.063C145.343 112.098 145.317 112.128 145.284 112.148C145.25 112.169 145.212 112.18 145.173 112.18Z" fill="white"/>
<path d="M143.902 113.766C143.902 113.966 143.956 114.163 144.057 114.337C144.158 114.51 144.304 114.654 144.479 114.753C144.654 114.852 144.852 114.903 145.053 114.9C145.254 114.898 145.451 114.843 145.623 114.74C149.441 112.517 155.009 111.293 164.02 113.853C168.813 115.214 171.173 114.303 172.181 112.355C173.302 110.19 170.931 108.096 168.222 107.11C158.998 103.747 150.671 106.044 143.902 112.758V113.766Z" fill="#0E8388"/>
<path d="M144.423 113.945C144.38 113.945 144.338 113.932 144.303 113.908C144.268 113.884 144.241 113.85 144.226 113.81C144.211 113.77 144.208 113.726 144.219 113.684C144.23 113.643 144.253 113.606 144.285 113.578C152.25 106.473 164.587 107.855 169.255 110.627C169.303 110.656 169.337 110.702 169.351 110.755C169.365 110.809 169.358 110.866 169.33 110.914C169.301 110.961 169.255 110.995 169.201 111.008C169.147 111.021 169.09 111.013 169.043 110.985C164.458 108.267 152.371 106.918 144.564 113.899C144.524 113.929 144.474 113.945 144.423 113.945Z" fill="white"/>
<path d="M54.7873 130.34C51.2863 125 45.2761 121.079 38.3157 118.365C31.447 115.68 30.6926 111.172 35.5607 110.315C41.079 109.345 47.3768 113.079 51.1738 117.682C57.7966 125.707 58.0842 131.281 58.0842 131.281L54.7873 130.34Z" fill="#0E8388"/>
<path opacity="0.15" d="M54.7873 130.34C51.2863 125 45.2761 121.079 38.3157 118.365C31.447 115.68 30.6926 111.172 35.5607 110.315C41.079 109.345 47.3768 113.079 51.1738 117.682C57.7966 125.707 58.0842 131.281 58.0842 131.281L54.7873 130.34Z" fill="black"/>
<path d="M56.9171 130.307C56.9488 130.313 56.9813 130.313 57.013 130.307C57.0391 130.298 57.0631 130.284 57.0836 130.266C57.1041 130.247 57.1207 130.225 57.1324 130.2C57.144 130.175 57.1506 130.148 57.1515 130.121C57.1525 130.093 57.1479 130.066 57.138 130.04C52.5533 116.925 39.5369 112.288 36.2526 112.142C36.2252 112.141 36.1979 112.145 36.1722 112.155C36.1464 112.164 36.1228 112.179 36.1027 112.197C36.0826 112.216 36.0663 112.238 36.0548 112.263C36.0434 112.288 36.0369 112.315 36.0358 112.342C36.0357 112.397 36.0562 112.449 36.0933 112.489C36.1304 112.53 36.1813 112.554 36.2359 112.558C39.441 112.692 52.2407 117.279 56.7463 130.19C56.763 130.222 56.7874 130.249 56.8172 130.27C56.847 130.29 56.8813 130.303 56.9171 130.307Z" fill="white"/>
<path d="M58.1134 131.027C58.0807 131.323 57.9722 131.605 57.7984 131.847C57.6246 132.089 57.3914 132.282 57.1212 132.407C56.851 132.533 56.553 132.586 56.2559 132.563C55.9588 132.54 55.6726 132.441 55.425 132.276C51.8906 129.911 46.6266 128.376 38.0031 129.757C33.085 130.544 30.8509 129.362 30.084 127.31C29.2255 125.025 31.8346 123.231 34.6396 122.569C44.1966 120.313 52.1907 123.576 58.1217 131.039L58.1134 131.027Z" fill="#0E8388"/>
<path d="M57.4507 132.142C57.4798 132.147 57.5095 132.145 57.5376 132.136C57.5658 132.127 57.5916 132.112 57.6132 132.092C57.6546 132.056 57.6799 132.004 57.6838 131.949C57.6877 131.894 57.6698 131.839 57.634 131.797C50.5486 123.801 38.149 123.722 33.185 125.924C33.1355 125.947 33.097 125.989 33.0776 126.04C33.0582 126.091 33.0593 126.148 33.0808 126.199C33.0917 126.224 33.1074 126.247 33.1272 126.266C33.1469 126.285 33.1702 126.3 33.1958 126.31C33.2214 126.32 33.2487 126.325 33.2761 126.324C33.3036 126.324 33.3307 126.318 33.3559 126.307C38.2198 124.146 50.386 124.226 57.3215 132.076C57.3549 132.113 57.4009 132.137 57.4507 132.142Z" fill="white"/>
<path d="M151.025 35.2343L150.962 35.201L135.074 26.0439L134.982 25.9981C127.559 22.2519 117.656 23.3799 107.003 30.2603C85.605 44.0793 69.3001 75.8839 70.5838 101.303C71.2215 113.974 76.1147 122.66 83.5044 126.477L83.5711 126.511L99.4634 135.647L99.5426 135.684C106.966 139.431 116.877 138.319 127.539 131.435C148.937 117.616 165.242 85.807 163.958 60.3916C163.312 47.7422 158.419 39.0554 151.025 35.2343Z" fill="#37474F"/>
<path d="M98.9049 135.376L83.5586 126.536L83.4877 126.49C76.098 122.665 71.209 113.974 70.5671 101.324C69.992 89.9901 72.9262 77.3865 78.2319 65.6862L78.3403 65.4323L94.1284 74.8184C88.8101 86.5229 85.8884 99.1224 86.4594 110.456C87.0763 122.852 91.7777 131.431 98.9049 135.376Z" fill="#263238"/>
<path d="M127.539 131.456C148.937 117.637 165.242 85.8278 163.958 60.4125C162.674 34.9971 144.285 25.5902 122.887 39.4092C101.489 53.2282 85.1715 85.0369 86.4553 110.456C87.739 135.876 106.128 145.266 127.539 131.456Z" fill="#455A64"/>
<path d="M145.652 33.2655L118.832 88.4334L113.059 82.1898C112.221 81.2474 111.204 80.4813 110.066 79.9363C108.928 79.3914 107.693 79.0785 106.432 79.0161C105.172 78.9536 103.912 79.1428 102.725 79.5726C101.539 80.0024 100.451 80.6642 99.5235 81.5192C98.5963 82.3742 97.8493 83.4053 97.326 84.5521C96.8027 85.6989 96.5137 86.9384 96.4759 88.1981C96.4381 89.4578 96.6523 90.7124 97.1058 91.8885C97.5594 93.0645 98.2433 94.1384 99.1174 95.0474L114.326 111.497C115.997 113.313 118.316 114.401 120.782 114.527C120.957 114.527 121.132 114.527 121.307 114.527C121.768 114.527 122.227 114.493 122.683 114.427C124.212 114.203 125.662 113.608 126.908 112.696C128.154 111.783 129.157 110.58 129.831 109.191L160.59 45.9232C157.448 38.918 152.196 34.5475 145.652 33.2655Z" fill="#37474F"/>
<path d="M167.434 15.0927C167.263 14.9928 167.092 14.9054 166.917 14.8179C164.951 13.8678 162.688 13.7347 160.624 14.4478C158.56 15.1609 156.863 16.6621 155.905 18.6223L121.774 88.8246L119.836 86.7435C119.274 86.133 118.622 85.6122 117.902 85.1992C116.885 84.6165 112.559 82.1149 111.859 81.7112C110.154 80.7476 108.162 80.4218 106.239 80.7924C104.315 81.163 102.587 82.2056 101.364 83.7333C100.141 85.261 99.5025 87.1739 99.5636 89.1291C99.6247 91.0842 100.381 92.9536 101.697 94.4022L116.906 110.852C117.475 111.471 118.138 111.997 118.869 112.413C119.861 112.979 124.171 115.472 124.875 115.88C126.001 116.531 127.265 116.907 128.564 116.975C129.121 117.006 129.679 116.982 130.231 116.904C131.558 116.708 132.817 116.192 133.898 115.4C134.98 114.608 135.851 113.564 136.437 112.359L176.778 29.3071C177.686 27.4353 177.852 25.2899 177.242 23.3013C176.632 21.3127 175.292 19.6279 173.49 18.5849L167.434 15.0927Z" fill="#2E4F4F"/>
<path opacity="0.15" d="M124.859 115.88C124.158 115.464 119.857 112.966 118.853 112.413C118.121 111.996 117.457 111.47 116.885 110.852L101.697 94.4022C101.026 93.6723 100.493 92.8259 100.126 91.9048L106.17 95.3887C106.539 96.3105 107.074 97.1569 107.749 97.8861L122.954 114.344C123.509 114.948 124.151 115.465 124.859 115.88Z" fill="black"/>
<path d="M172.969 18.3143C171.003 17.363 168.74 17.2293 166.675 17.9425C164.611 18.6558 162.914 20.1577 161.957 22.1187L126.855 94.3231L119.836 86.7268C118.328 85.2367 116.301 84.3852 114.18 84.3497C112.058 84.3142 110.005 85.0973 108.447 86.5361C106.889 87.9749 105.947 89.9583 105.817 92.0734C105.687 94.1884 106.379 96.272 107.749 97.8902L122.954 114.344C124.404 115.913 126.412 116.853 128.547 116.962C129.104 116.993 129.662 116.97 130.214 116.891C131.541 116.696 132.8 116.179 133.882 115.387C134.963 114.595 135.835 113.551 136.42 112.346L176.778 29.3071C177.73 27.3444 177.863 25.0851 177.149 23.0244C176.435 20.9638 174.931 19.27 172.969 18.3143Z" fill="#0E8388"/>
<path d="M57.8341 26.4185C54.654 26.4185 52.4783 27.2509 50.2193 30.456C48.1353 33.4029 42.4503 43.2261 42.4503 43.2261C42.4503 43.2261 38.2824 34.6849 37.8656 32.9825C37.4488 31.2801 37.4738 30.5226 37.8656 29.7858C38.4415 28.9109 38.8028 27.9127 38.9201 26.8722C39.0826 24.8285 39.5828 23.0761 39.1243 23.0178C37.8489 22.9429 37.8031 24.5745 37.1362 25.5402C37.0505 25.63 36.9451 25.6986 36.8283 25.7407C36.7114 25.7827 36.5864 25.7971 36.4631 25.7825C36.3397 25.768 36.2215 25.725 36.1177 25.6569C36.0139 25.5889 35.9274 25.4976 35.865 25.3904C35.5857 24.8201 35.7358 23.8836 35.5982 23.2093C35.6373 22.8356 35.6986 22.4645 35.7816 22.0979C36.2633 22.1827 36.755 22.1954 37.2404 22.1354C37.7864 23.0012 38.1657 23.3841 38.9326 23.0137C39.0326 22.8513 38.6033 21.7441 38.099 20.9325C38.0241 20.8035 37.9013 20.7093 37.7572 20.6703C36.8326 20.4364 35.8676 20.4094 34.9313 20.5912C34.7949 20.6194 34.6742 20.6982 34.5937 20.8118C34.2426 21.327 33.9622 21.887 33.7602 22.4767C33.7018 22.6557 33.5393 22.6515 33.4976 22.4975C33.0808 20.4871 33.0808 17.6317 33.0808 16.2956C33.0808 15.2425 31.5387 15.0802 31.4886 16.5828C31.3952 18.6059 31.43 20.6329 31.5928 22.6515C31.5928 22.8305 31.4095 22.9179 31.3344 22.7181C31.0677 22.0064 30.4133 19.8544 30.1382 16.1416C30.0632 15.1468 28.4461 14.9803 28.4711 16.383C28.5199 18.8727 28.83 21.3503 29.3963 23.7754C29.4464 23.9502 29.2838 24.1084 29.1629 23.9086C28.4048 22.4477 27.7973 20.9136 27.3499 19.33C27.0081 18.1271 25.3951 18.4309 25.6827 19.9335C26.187 22.6266 26.9873 26.0355 28.1835 28.4664C29.4589 31.0678 30.5634 32.3706 31.1969 34.4144C31.8304 36.4581 34.452 48.0377 37.2571 52.5497C39.4535 56.0836 41.9668 55.7589 44.6718 53.8942C47.3768 52.0294 57.038 38.5767 57.038 38.5767L57.8341 26.4185Z" fill="#9E6767"/>
<path d="M42.4503 43.226C42.4503 43.226 43.8049 45.5236 44.0133 47.3551C44.3576 45.5728 44.0152 43.7264 43.0547 42.1854L42.4503 43.226Z" fill="#874C4C"/>
<path d="M58.5093 26.4268C56.8922 26.2644 54.879 26.2062 52.6325 27.6172C50.386 29.0282 49.6108 30.9929 48.523 32.7119C47.4351 34.431 43.6757 40.5205 43.6757 40.5205C43.6757 40.5205 45.0511 46.302 50.5402 47.4966L58.7677 36.3623L58.5093 26.4268Z" fill="#2E4F4F"/>
<path d="M65.874 128.08C66.2908 128.03 66.8452 129.445 66.8535 129.907C66.8618 130.369 66.395 131.368 65.7823 132.296C64.9634 133.406 64.2845 134.613 63.7609 135.888C63.2899 137.17 62.8565 138.011 61.5436 139.689C60.0848 141.562 56.6587 144.683 51.4572 143.326C50.2068 142.994 49.5524 142.594 49.0898 142.132C48.8868 141.927 48.7453 141.67 48.6812 141.389C48.6171 141.108 48.633 140.814 48.7272 140.542L65.874 128.08Z" fill="#263238"/>
<path d="M55.6543 126.461C55.6523 126.475 55.6523 126.489 55.6543 126.502C55.5945 126.891 55.6058 127.287 55.6876 127.672C55.8306 128.818 55.7288 129.982 55.389 131.086C55.0492 132.19 54.4791 133.21 53.7162 134.078C52.9938 134.836 52.1755 135.496 51.2821 136.042C48.648 137.707 48.3646 138.848 48.7355 140.542C49.6149 142.519 55.5917 143.722 59.0261 140.779C60.5089 139.631 61.642 138.093 62.2979 136.338C62.7977 135.082 63.3754 133.859 64.0276 132.675C64.6945 131.426 65.9532 130.02 65.9907 128.733C66.0116 128.026 65.3114 126.71 64.6278 125.628C64.0068 124.633 63.3774 123.689 62.7981 123.801L62.9523 124.363C62.4855 124.85 61.8061 125.029 61.3935 125.612C60.8892 126.315 60.9059 127.277 60.5933 128.067C60.5599 128.146 60.5182 128.234 60.439 128.255C60.3954 128.264 60.35 128.258 60.31 128.239C60.2699 128.219 60.2376 128.187 60.2181 128.146C60.1817 128.064 60.166 127.974 60.1723 127.884L60.1348 126.673C60.1536 126.442 60.0918 126.211 59.9597 126.02C59.6346 125.649 58.8302 125.695 58.3884 125.674C57.7881 125.679 57.1885 125.715 56.592 125.782C56.3855 125.764 56.1789 125.818 56.0085 125.936C55.8396 126.071 55.716 126.254 55.6543 126.461Z" fill="#222221"/>
<path d="M46.8266 102.261C48.2145 106.814 54.704 122.594 55.0916 123.543L56.3837 126.677C57.2351 126.954 58.1464 126.991 59.0178 126.785C59.1553 128.296 59.3846 130.665 59.4721 131.863C59.5013 133.249 59.6263 134.96 59.3262 136.33C59.072 137.495 58.7761 138.719 58.5552 139.888C58.4593 140.405 58.3634 140.925 58.2842 141.445C58.1498 141.99 58.1951 142.564 58.4134 143.081C58.5464 143.307 58.7219 143.505 58.9303 143.664C59.856 144.39 61.026 144.733 62.1979 144.621C62.8167 144.59 63.4156 144.393 63.9318 144.051C64.9404 143.327 65.2947 142.074 65.8073 141.008C66.3658 139.855 66.1825 139.726 66.2241 138.511C66.2575 137.645 66.4951 135.447 66.8452 133.15C67.1953 130.852 68.6832 122.777 69.4001 114.731C69.6922 111.157 69.6922 107.566 69.4001 103.992C75.0935 88.5458 77.6276 79.3636 78.3736 74.2314C79.128 69.0202 78.7654 67.1554 78.6696 64.1669L50.982 64.8328C48.7647 79.0847 44.9635 96.1504 46.8266 102.261Z" fill="#9E6767"/>
<path d="M46.3932 90.8517C46.9642 85.5988 50.8987 65.4072 50.8987 65.4072H78.7738C78.7738 65.4072 78.953 69.2824 78.903 71.0639C78.853 72.8454 78.2778 76.1003 77.2775 80.221C76.2772 84.3418 72.5927 95.9922 71.88 97.7029C71.1673 99.4137 69.7961 104.392 69.7961 104.392C70.4796 113.736 68.6999 122.115 67.3662 133.258C67.3662 133.258 66.9785 134.76 63.0274 134.465C59.1845 134.173 58.4093 132.762 58.4093 132.762L58.1509 123.147C58.1509 123.147 56.0669 123.793 54.8165 123.497C54.8165 123.497 46.5599 103.143 46.1598 101.915C45.7596 100.687 45.8222 96.1046 46.3932 90.8517Z" fill="#6F6F6F"/>
<path opacity="0.2" d="M58.2217 78.5686C54.2747 75.014 53.3953 72.1836 53.3953 72.1836C55.3795 74.421 57.7322 76.3031 60.3515 77.7487C60.3515 77.7487 56.6004 97.5282 56.8713 101.595C57.1422 105.661 58.1592 123.147 58.1592 123.147C58.1592 123.314 55.5001 104.658 55.425 103.168C55.225 99.2389 58.2217 78.5686 58.2217 78.5686Z" fill="black"/>
<path d="M66.916 143.185C67.3078 143.293 67.2578 144.455 67.0827 144.883C66.6471 145.645 66.0283 146.286 65.2822 146.748C64.1956 147.485 63.2907 148.458 62.6356 149.595C61.565 151.228 60.1495 152.608 58.4885 153.637C56.2737 154.886 53.6663 155.247 51.1946 154.648C48.5771 153.907 48.3312 153.266 48.3562 152.28L66.916 143.185Z" fill="#263238"/>
<path d="M58.8219 137.112C58.1342 140.442 56.938 142.885 54.1622 144.946C51.9573 146.581 50.3568 147.414 48.5938 148.875C47.8436 149.499 47.7602 150.827 48.3562 152.259C49.5483 153.216 51.2404 153.761 53.512 153.757C56.0502 153.757 57.0297 153.308 58.4885 152.309C59.2051 151.82 59.8723 151.262 60.4807 150.644C61.6978 149.42 62.5647 147.909 63.4316 146.939C64.2986 145.97 66.2158 144.983 66.766 143.809C67.0661 143.168 66.9369 141.682 66.741 140.417C66.5576 139.256 66.9118 137.216 66.3533 137.087L66.2742 137.92C66.2283 138.107 66.1116 138.203 65.7198 138.336C65.3665 138.413 65.0019 138.425 64.6445 138.369C64.5192 138.323 64.3823 138.317 64.2536 138.353C64.1248 138.389 64.0107 138.464 63.9276 138.569C63.5525 139.014 63.4525 139.634 62.969 140.001C62.9377 140.028 62.9007 140.048 62.8606 140.059C62.84 140.065 62.8182 140.065 62.7976 140.059C62.777 140.053 62.7584 140.041 62.7439 140.026C62.7303 140.007 62.7213 139.985 62.7177 139.962C62.714 139.938 62.7159 139.915 62.7231 139.893L62.8606 138.644C62.8751 138.518 62.8751 138.391 62.8606 138.265C62.8339 138.15 62.783 138.042 62.7111 137.948C62.6392 137.854 62.5481 137.776 62.4438 137.72C62.0926 137.515 61.7155 137.358 61.3227 137.254C60.9133 137.145 60.4947 137.074 60.0723 137.041C59.6544 136.997 59.2321 137.021 58.8219 137.112Z" fill="#222221"/>
<path d="M76.273 27.6172C76.273 27.6172 77.4234 29.1947 78.357 32.4372C79.4983 37.761 80.0849 43.1885 80.1075 48.6329C80.1075 55.9878 79.1155 67.9046 79.1155 67.9046C70.5671 72.1835 56.7796 69.6528 50.7111 65.4821C50.957 64.1543 51.1654 57.199 51.6447 52.608C51.9657 44.7286 52.2324 40.6037 52.2866 37.099C52.3991 30.098 55.8877 26.4809 58.5385 26.4268L65.2322 26.535L76.273 27.6172Z" fill="#D9ECE7"/>
<path d="M78.382 65.7653C77.1108 66.81 74.6308 68.8163 74.1557 69.8277C73.6347 70.9849 73.3221 72.7414 72.972 73.4032C72.6219 74.065 73.1512 74.3897 73.8848 74.1524C74.6183 73.9151 75.056 73.295 75.6228 71.7799C76.1896 70.2648 77.7651 69.0785 77.7651 69.0785L78.382 65.7653Z" fill="#874C4C"/>
<path d="M73.7389 79.3719C74.0432 79.9546 74.7517 79.9588 75.4061 80.0129C76.2042 80.1008 77.0118 80.0083 77.7693 79.7424C78.6795 79.4801 79.4778 78.9257 80.0408 78.1648C80.6827 77.2449 80.8452 76.0837 81.212 75.0264C81.9831 72.7954 84.2671 71.1929 84.638 68.8328C84.7922 67.8547 84.7964 66.7059 85.0548 66.1023C85.2174 65.7444 88.9727 59.2886 90.3106 56.4914C91.5985 53.8026 92.5613 52.5414 91.3942 49.3072C90.2272 46.0731 86.276 34.7098 83.4627 30.7598C81.8705 28.5204 79.3406 27.8836 76.2688 27.6172C73.939 33.6901 76.6523 39.9586 76.6523 39.9586L82.825 51.8546C82.825 51.8546 80.4284 60.0461 78.928 64.5997C78.5112 65.8484 77.6776 66.6476 76.719 68.0503C76.3022 68.658 75.3644 69.7152 75.0268 70.3812C74.61 71.2137 74.61 71.759 74.4058 72.9369C74.0807 74.8141 73.593 79.0847 73.7389 79.3719Z" fill="#9E6767"/>
<path d="M75.9437 27.584C77.5526 27.6506 79.8699 27.9211 81.2578 28.6204C82.6458 29.3197 83.6044 30.1813 85.1965 33.3697C86.7887 36.558 89.1144 42.7516 89.1144 42.7516C89.1144 42.7516 88.3433 47.4259 80.9453 48.6372L75.9437 39.4259C75.9437 39.4259 73.7139 33.6902 75.9437 27.584Z" fill="#2E4F4F"/>
<path d="M56.713 12.7077C56.9286 13.0998 57.118 13.5059 57.2798 13.9231C57.5238 14.4764 57.8391 14.9955 58.2176 15.4673C59.1762 16.5703 60.5224 17.382 61.7478 18.1604C62.4939 18.6349 63.3441 19.0844 64.2486 18.9512C65.153 18.818 66.1742 19.022 67.1119 19.1052L70.3921 19.3966L70.2087 22.843C70.2087 22.843 70.6255 21.9273 71.1715 20.8409C71.6466 19.9044 73.6389 15.151 73.6472 15.1343C74.6309 12.7784 75.8062 9.64002 74.6225 7.16758C74.3581 6.56147 73.9165 6.04931 73.3555 5.69826C73.4695 5.31954 73.5063 4.92183 73.4639 4.52864C73.3983 3.96792 73.2078 3.42898 72.9063 2.95143C72.6048 2.47388 72.2 2.06984 71.7217 1.769C70.7868 1.14666 69.7344 0.721726 68.6291 0.520294C67.159 0.176105 65.6543 0.00153137 64.1444 0C62.6687 0.0470487 61.1994 0.215501 59.7514 0.503645C58.9438 0.652609 58.1258 0.737508 57.3048 0.757549C56.9581 0.781149 56.6098 0.764386 56.267 0.7076C55.8244 0.580471 55.3901 0.42617 54.9666 0.245579C54.8929 0.216999 54.8111 0.216999 54.7374 0.245579C54.6707 0.282083 54.6213 0.343436 54.5998 0.416236C54.4913 0.936542 54.4959 1.47403 54.613 1.99245C54.7302 2.51087 54.9574 2.99816 55.2792 3.42146C55.0922 3.39388 54.9098 3.34065 54.7374 3.26329C54.5437 3.17736 54.3582 3.07427 54.183 2.95527C53.8782 2.7508 53.6104 2.49604 53.3911 2.20189C53.3602 2.1553 53.3148 2.12018 53.2619 2.10199C53.1786 2.10199 53.1077 2.16026 53.0577 2.22686C52.8346 2.5618 52.6825 2.93882 52.6108 3.33469C52.5391 3.73055 52.5494 4.13688 52.6409 4.52864C52.8252 5.3149 53.1953 6.04565 53.7204 6.65977C53.4628 7.07538 53.3141 7.54901 53.2878 8.03708C53.2616 8.52515 53.3588 9.01197 53.5703 9.45271C53.7533 9.84503 54.0029 10.2027 54.3081 10.5099C54.6832 10.8929 55.1417 11.2092 55.5168 11.563C55.9578 11.8979 56.3592 12.2819 56.713 12.7077Z" fill="#37474F"/>
<path d="M66.6867 6.97197C66.6738 7.59361 66.7538 8.21371 66.9243 8.81173C67.1223 9.3347 67.4407 9.80382 67.8538 10.1811C68.3193 10.5795 68.7515 11.0152 69.1458 11.484C69.5686 12.217 69.8168 13.0373 69.871 13.8815C69.8728 14.1309 69.9307 14.3767 70.0403 14.6007C70.15 14.8248 70.3086 15.0214 70.5046 15.176C71.3965 15.7254 71.93 14.6557 72.4051 14.1312C73.0178 13.5651 74.835 12.8825 75.677 14.8055C76.5522 16.8076 74.9434 19.4549 73.4805 19.8628C70.9589 20.5621 70.4087 18.8472 70.4087 18.8472L69.9252 27.8379C68.4998 30.5351 65.1571 31.3883 62.9648 30.9596C61.0684 30.5892 60.0264 29.2614 61.8061 27.3384L61.9061 24.5995C61.9061 24.5995 59.6304 24.8701 58.5301 24.662C56.7046 24.3207 55.796 22.7681 55.3041 20.766C54.5122 17.5485 54.1538 14.1645 55.1291 6.92202C55.5792 6.67228 57.3839 8.07499 60.1306 8.26646C62.3925 8.42745 64.6564 7.98047 66.6867 6.97197Z" fill="#9E6767"/>
<path d="M61.9229 24.5996C61.9229 24.5996 66.0491 23.9086 67.5079 23.1927C68.3639 22.781 69.0757 22.1209 69.5502 21.2988C69.3078 22.1287 68.901 22.9015 68.354 23.5715C67.262 24.8785 61.8895 25.6901 61.8895 25.6901L61.9229 24.5996Z" fill="#874C4C"/>
<path d="M64.0527 10.1727L65.9741 10.7596C66.0474 10.4981 66.0163 10.2183 65.8873 9.97917C65.7582 9.74006 65.5413 9.56027 65.2822 9.47763C65.1558 9.43988 65.023 9.42804 64.8919 9.44281C64.7608 9.45758 64.634 9.49866 64.5192 9.56358C64.4043 9.6285 64.3038 9.71592 64.2236 9.8206C64.1435 9.92528 64.0853 10.0451 64.0527 10.1727Z" fill="#263238"/>
<path d="M63.3858 19.28L60.5558 20.2374C60.6104 20.4266 60.7027 20.603 60.8269 20.756C60.9512 20.909 61.105 21.0354 61.2792 21.1278C61.4534 21.2202 61.6444 21.2767 61.8409 21.294C62.0374 21.3112 62.2354 21.2887 62.423 21.228C62.8054 21.0918 63.1197 20.8123 63.2994 20.4487C63.4791 20.0852 63.5101 19.666 63.3858 19.28Z" fill="#874C4C"/>
<path d="M63.1566 19.9792C62.7872 19.9795 62.4283 20.1023 62.1364 20.3283C61.8444 20.5543 61.6359 20.8708 61.5436 21.228C61.8296 21.3194 62.137 21.3194 62.423 21.228C62.6864 21.1344 62.9194 20.9712 63.0971 20.7556C63.2747 20.5401 63.3904 20.2803 63.4316 20.0042C63.3409 19.9877 63.2488 19.9793 63.1566 19.9792Z" fill="#F28F8F"/>
<path d="M55.475 10.4974L57.4256 10.2393C57.4113 10.1131 57.3718 9.99108 57.3093 9.88042C57.2469 9.76975 57.1629 9.67273 57.0622 9.5951C56.9615 9.51747 56.8463 9.46081 56.7233 9.42848C56.6003 9.39614 56.472 9.3888 56.3461 9.40688C56.0876 9.44025 55.8522 9.57268 55.6897 9.77617C55.5272 9.97967 55.4502 10.2383 55.475 10.4974Z" fill="#263238"/>
<path d="M67.4912 11.3258L73.939 13.536C73.5775 13.5389 73.2215 13.6253 72.899 13.7885C72.5765 13.9517 72.2962 14.1873 72.0801 14.4767L67.5204 12.7452L67.4912 11.3258Z" fill="#263238"/>
<path d="M56.4337 13.8398C56.4354 13.9905 56.4814 14.1373 56.5659 14.2622C56.6503 14.387 56.7697 14.4843 56.909 14.5421C57.0484 14.5999 57.2016 14.6156 57.3498 14.5872C57.498 14.5588 57.6346 14.4877 57.7427 14.3826C57.8507 14.2774 57.9256 14.1429 57.9579 13.9958C57.9902 13.8486 57.9785 13.6952 57.9243 13.5545C57.8702 13.4139 57.7759 13.2922 57.6532 13.2046C57.5305 13.1169 57.3847 13.0672 57.2339 13.0614C57.0246 13.0592 56.8229 13.1398 56.6729 13.2857C56.523 13.4316 56.4369 13.6308 56.4337 13.8398Z" fill="#263238"/>
<path d="M63.8026 13.844C63.8043 13.9947 63.8503 14.1415 63.9347 14.2664C64.0192 14.3912 64.1386 14.4885 64.2779 14.5463C64.4172 14.6041 64.5705 14.6198 64.7187 14.5914C64.8669 14.5631 65.0035 14.4919 65.1116 14.3868C65.2196 14.2816 65.2945 14.1471 65.3268 14C65.3591 13.8528 65.3474 13.6994 65.2932 13.5587C65.2391 13.4181 65.1448 13.2964 65.0221 13.2088C64.8993 13.1211 64.7536 13.0714 64.6028 13.0657C64.499 13.064 64.3959 13.0829 64.2994 13.1211C64.2029 13.1594 64.115 13.2163 64.0406 13.2887C63.9663 13.361 63.9069 13.4473 63.8661 13.5426C63.8252 13.6379 63.8036 13.7403 63.8026 13.844Z" fill="#263238"/>
<path d="M52.6326 11.7961C52.6807 12.1324 52.8255 12.4476 53.0494 12.7035C53.128 12.7961 53.1836 12.9059 53.2119 13.024C53.3619 13.6442 53.4912 14.8179 53.7829 15.4756C53.9861 16.0053 54.3501 16.4583 54.8239 16.771C55.2978 17.0838 55.8578 17.2406 56.4254 17.2196C56.7276 17.2296 57.0298 17.203 57.3256 17.1405H57.3923C57.6482 17.0809 57.8939 16.9841 58.1217 16.8533C58.1385 16.8461 58.1539 16.8363 58.1676 16.8242L58.2301 16.7867L58.3093 16.7326L58.3801 16.6785L58.4593 16.6119L58.5343 16.5453C58.5844 16.4995 58.6302 16.4537 58.6761 16.4038C58.9224 16.1278 59.121 15.8127 59.2637 15.4714C59.643 14.614 59.5472 13.4152 60.1723 13.2779H60.2474H60.3307C61.1643 13.2779 61.0851 14.5973 61.5811 15.5297C62.0771 16.4621 62.8315 17.3736 64.6945 17.3986H64.9321H65.1238C65.2738 17.3861 65.4228 17.3639 65.5698 17.332L65.7073 17.3029L65.8407 17.2654L65.9241 17.2363C66.0994 17.1753 66.2684 17.0972 66.4284 17.0032L66.5951 16.8866C66.6976 16.8114 66.7938 16.7278 66.8827 16.6369C67.1188 16.3828 67.3091 16.0899 67.4454 15.7711C67.733 15.1218 67.808 13.948 67.9497 13.3403C67.9745 13.2146 68.0226 13.0946 68.0914 12.9865C68.313 12.7406 68.4579 12.4353 68.5082 12.1082C68.5186 11.9415 68.4736 11.7761 68.3802 11.6376C68.2867 11.4991 68.15 11.3953 67.9914 11.3424C67.8455 11.3174 67.6954 11.3008 67.5371 11.2799C66.0783 11.1051 64.1777 11.026 63.0399 11.3341C61.6144 11.7253 61.1185 12.1665 60.3224 12.1665C59.5263 12.1665 59.097 11.6754 57.7424 11.2342C56.6671 10.8845 54.8874 10.8928 53.5287 11.0177L53.1119 11.0593C52.9622 11.1127 52.8342 11.2137 52.7476 11.3468C52.661 11.4799 52.6206 11.6378 52.6326 11.7961ZM62.0187 12.6868C62.1314 12.5465 62.2737 12.4328 62.4355 12.3538L62.5105 12.3122H62.5522C62.6147 12.2789 62.6814 12.2498 62.7523 12.2206C62.8134 12.191 62.876 12.1646 62.9398 12.1415C63.1386 12.0654 63.3418 12.0015 63.5484 11.9501L63.7901 11.896C63.9963 11.8502 64.2051 11.8168 64.4153 11.7961H64.5612C65.9366 11.6837 66.7952 12.0084 67.1036 12.2914C67.412 12.5744 67.2828 13.8481 67.1536 14.4933V14.5391C67.1536 14.5391 67.1536 14.5724 67.1536 14.589C67.1536 14.6057 67.1161 14.7555 67.0953 14.8512C67.0744 14.947 67.0661 14.9553 67.0494 15.0136C67.0239 15.1054 66.9932 15.1957 66.9577 15.2841C66.947 15.3154 66.9345 15.3459 66.9202 15.3757C66.9154 15.3952 66.9069 15.4135 66.8952 15.4298L66.8702 15.4922L66.8327 15.5672L66.7827 15.6546L66.7285 15.7461L66.6701 15.8377C66.455 16.1409 66.165 16.3833 65.8283 16.5416C65.4917 16.6998 65.1198 16.7685 64.7487 16.741C64.3754 16.7626 64.0018 16.7048 63.6526 16.5713C63.3034 16.4379 62.9865 16.2318 62.7231 15.9668C62.3933 15.5985 62.1649 15.151 62.0604 14.6681C61.8478 13.9189 61.752 13.0781 62.0187 12.6868ZM53.9371 12.0167C54.0357 11.9259 54.1501 11.8539 54.2747 11.8044H54.2997C54.3484 11.7818 54.3986 11.7623 54.4498 11.7461L54.5415 11.717L54.6165 11.6962H54.6665H54.6874H54.7624C54.8656 11.6742 54.97 11.6575 55.075 11.6462H55.25H55.3501H55.8044C56.0165 11.6561 56.2279 11.6769 56.4379 11.7087C57.4173 11.8502 58.4427 12.3039 58.7094 12.7035C58.9761 13.1031 58.9136 13.9522 58.7886 14.6598C58.7585 14.8221 58.7168 14.9821 58.6636 15.1384V15.1759C58.6636 15.1759 58.6636 15.2092 58.6636 15.2259V15.255L58.6385 15.3133C58.6385 15.3549 58.6052 15.3923 58.5844 15.434C58.5635 15.4756 58.551 15.5006 58.5343 15.5339C58.529 15.5472 58.522 15.5598 58.5135 15.5713L58.476 15.6379L58.4385 15.6962C58.2175 16.0248 57.9096 16.2858 57.5492 16.4504C57.1887 16.6149 56.7896 16.6766 56.3962 16.6286C56.0404 16.6242 55.69 16.5402 55.3709 16.383C54.3956 15.8877 54.1455 14.793 54.033 14.3018C53.8371 13.5692 53.6495 12.2956 53.9371 12.0167Z" fill="#263238"/>
<path d="M60.5558 13.2945L60.4099 18.6473L57.4215 17.7857L60.2057 13.2529C60.324 13.2405 60.4437 13.2547 60.5558 13.2945Z" fill="#874C4C"/>
<path d="M142.185 13.2363L139.851 13.9397L138.163 8.3122L140.492 7.60876L142.185 13.2363Z" fill="#E0E0E0"/>
<path d="M149.487 8.23729C149.507 8.46584 149.453 8.69482 149.334 8.89096C149.215 9.08709 149.036 9.24013 148.824 9.32783C148.974 9.5015 149.086 9.70413 149.153 9.92305C149.287 10.3601 148.928 10.947 148.228 11.1718L142.881 12.7784L141.293 7.53386C141.293 7.53386 142.197 5.21959 142.243 4.86995C142.289 4.52031 141.764 3.23831 141.709 2.99689C141.655 2.75547 142.501 2.4433 143.185 2.71801C143.352 2.78289 143.502 2.88546 143.623 3.0177C143.859 3.2815 144.057 3.57715 144.21 3.89596C144.435 4.35554 144.547 4.8622 144.535 5.37359L147.765 4.3996C147.992 4.32651 148.237 4.33535 148.457 4.42458C148.584 4.47425 148.698 4.55106 148.792 4.64959C148.885 4.74812 148.956 4.86597 148.999 4.99482C149.05 5.16651 149.052 5.34924 149.003 5.5217C148.954 5.69415 148.858 5.84922 148.724 5.96881C148.919 5.94945 149.115 5.99703 149.279 6.10371C149.444 6.21039 149.567 6.36981 149.629 6.5557C149.677 6.76983 149.651 6.99424 149.554 7.19127C149.457 7.38831 149.295 7.54601 149.095 7.63792C149.295 7.78252 149.435 7.99603 149.487 8.23729Z" fill="#E0E0E0"/>
<path d="M175.691 71.6341L172.694 70.9141L174.44 63.6965L177.433 64.4125L175.691 71.6341Z" fill="#E0E0E0"/>
<path d="M186.848 70.8225C186.723 71.0832 186.519 71.2977 186.264 71.4353C186.01 71.5728 185.718 71.6264 185.431 71.5884C185.485 71.8727 185.476 72.1652 185.406 72.4458C185.277 73.0078 184.514 73.4198 183.614 73.2034L176.753 71.5384L178.387 64.8454C178.387 64.8454 180.855 62.8974 181.126 62.5436C181.396 62.1898 181.63 60.4624 181.705 60.1419C181.78 59.8214 182.926 60.042 183.497 60.7746C183.636 60.9536 183.733 61.1612 183.781 61.3823C183.882 61.8242 183.918 62.2785 183.889 62.7309C183.842 63.3755 183.64 63.9992 183.301 64.5499L187.448 65.5447C187.742 65.6069 188.005 65.7705 188.19 66.0067C188.314 66.1628 188.395 66.3482 188.425 66.5448C188.455 66.7415 188.433 66.9426 188.362 67.1284C188.291 67.3143 188.173 67.4786 188.02 67.6052C187.866 67.7318 187.682 67.8163 187.486 67.8506C187.705 67.9577 187.883 68.1353 187.989 68.3549C188.096 68.5745 188.125 68.8234 188.073 69.0618C187.989 69.3249 187.817 69.5511 187.585 69.7026C187.354 69.8542 187.078 69.9218 186.802 69.8943C186.937 70.1863 186.953 70.5188 186.848 70.8225Z" fill="#E0E0E0"/>
<path d="M24.3198 67.3137L27.5916 68.296L29.959 60.4125L26.6914 59.4302L24.3198 67.3137Z" fill="#E0E0E0"/>
<path d="M14.0959 60.3126C14.0695 60.632 14.1453 60.9516 14.3123 61.2254C14.4793 61.4991 14.729 61.7129 15.0253 61.836C14.8163 62.0787 14.6602 62.3622 14.5669 62.6685C14.3793 63.2762 14.8753 64.1003 15.8589 64.3917L23.3612 66.6394L25.566 59.3178C25.566 59.3178 24.3156 56.0795 24.2323 55.5716C24.1489 55.0638 24.92 53.2865 25.02 52.9452C25.1034 52.6705 23.9114 52.1668 22.9361 52.5539C22.7042 52.6471 22.4953 52.7891 22.3234 52.9702C21.9858 53.3434 21.705 53.7642 21.4898 54.2189C21.1693 54.8649 21.0119 55.5794 21.0313 56.3001L16.4966 54.9431C16.1797 54.8375 15.8355 54.8479 15.5255 54.9723C15.3519 55.0434 15.1955 55.1508 15.0669 55.2872C14.9382 55.4235 14.8402 55.5858 14.7794 55.7631C14.7091 56.0041 14.7082 56.2599 14.7767 56.5014C14.8453 56.7428 14.9806 56.9601 15.167 57.1284C14.895 57.1051 14.6231 57.1747 14.3959 57.326C14.1687 57.4772 13.9997 57.7011 13.9167 57.9608C13.8466 58.2606 13.8826 58.5753 14.0186 58.8515C14.1546 59.1277 14.3822 59.3484 14.6627 59.4759C14.3786 59.6771 14.1771 59.9743 14.0959 60.3126Z" fill="#E0E0E0"/>
</g>
<defs>
<clipPath id="clip0_1442_7423">
<rect width="193" height="177" fill="white"/>
</clipPath>
</defs>
</svg>
