<svg width="28" height="28" viewBox="0 0 28 28" fill="none" xmlns="http://www.w3.org/2000/svg">
<rect x="0.5" y="0.5" width="27" height="27" rx="6.5" stroke="#676767"/>
<g clip-path="url(#clip0_344_4651)">
<path d="M23.3177 10.7194L18.7904 6.19212C18.4168 5.81856 18.0379 5.62915 17.6643 5.62915C17.1512 5.62915 16.5521 6.01938 16.5521 7.11919V8.66052C13.2629 8.80388 10.1912 10.1528 7.84836 12.4955C5.36695 14.9767 4.00027 18.2758 4 21.7849C3.99996 21.9078 4.03861 22.0277 4.11046 22.1275C4.18232 22.2272 4.28374 22.3019 4.40037 22.3408C4.517 22.3798 4.64293 22.381 4.76031 22.3444C4.87769 22.3078 4.98058 22.2352 5.05441 22.1369C7.8207 18.4547 11.9856 16.2786 16.5521 16.1067V17.6243C16.5521 18.724 17.1512 19.1143 17.6642 19.1143H17.6643C18.0379 19.1143 18.4169 18.9249 18.7904 18.5514L23.3177 14.024C23.7577 13.5841 24 12.9973 24 12.3718C24 11.7462 23.7577 11.1594 23.3177 10.7194ZM22.4891 13.1954L17.9618 17.7228C17.8749 17.8096 17.803 17.8645 17.75 17.8978C17.736 17.8367 17.7239 17.7471 17.7239 17.6243V15.5098C17.7239 15.1862 17.4616 14.9239 17.138 14.9239C14.5346 14.9239 12.0469 15.5204 9.74414 16.6967C8.09102 17.5412 6.57984 18.678 5.30012 20.0318C6.15145 14.2624 11.1359 9.81966 17.138 9.81966C17.4616 9.81966 17.7239 9.55731 17.7239 9.23372V7.11919C17.7239 6.99642 17.736 6.90677 17.7499 6.84575C17.803 6.87907 17.8749 6.93392 17.9618 7.02075L22.4891 11.5481C22.7077 11.7667 22.8281 12.0592 22.8281 12.3718C22.8281 12.6843 22.7077 12.9768 22.4891 13.1954Z" fill="#676767"/>
</g>
<defs>
<clipPath id="clip0_344_4651">
<rect width="20" height="20" fill="white" transform="translate(4 4)"/>
</clipPath>
</defs>
</svg>
